<?xml version="1.0" encoding="UTF-8"?>
<svg id="_레이어_1" data-name="레이어 1" xmlns="http://www.w3.org/2000/svg" viewBox="0 0 25 28">
  <defs>
    <style>
      .cls-2 {
        fill: #fff;
      }
    </style>
  </defs>
  <g>
    <path class="cls-2" d="M20.82,17.39h2.75c-1.36,3.51-4.76,5.99-8.75,5.99-1.31,0-2.55-.27-3.68-.75.51.09,1.05.14,1.59.14,3.64,0,6.77-2.22,8.09-5.38Z"/>
    <path class="cls-2" d="M12.73,5.23c-.54,0-1.07.05-1.59.14,1.13-.48,2.37-.75,3.68-.75,3.99,0,7.39,2.48,8.75,5.99h-2.75c-1.33-3.16-4.45-5.38-8.09-5.38Z"/>
    <path class="cls-2" d="M.35,14c0,6.62,5.38,12,12,12,2.17,0,4.29-.58,6.14-1.69,0,0,.57-.4,1.09-1.07-.12.08-.25.16-.38.23-.48.25-.92.39-.92.39-1.15.42-2.35.63-3.58.63-5.78,0-10.49-4.71-10.49-10.49S8.91,3.51,14.7,3.51c1.23,0,2.44.21,3.59.63,0,0,0,0,0,0h0s1.61.79,1.61.79l.14.07c-.05-.08-.12-.15-.18-.23-.53-.6-1.31-1.05-1.37-1.09h0c-1.85-1.11-3.98-1.7-6.15-1.7C5.74,2,.35,7.38,.35,14Z"/>
  </g>
</svg>